<?xml version="1.0" encoding="utf-8"?>
<!-- Generator: Adobe Illustrator 23.0.3, SVG Export Plug-In . SVG Version: 6.00 Build 0)  -->
<svg version="1.1" id="Ebene_1" xmlns="http://www.w3.org/2000/svg" xmlns:xlink="http://www.w3.org/1999/xlink" x="0px" y="0px"
	 viewBox="0 0 229.5 233.5" style="enable-background:new 0 0 229.5 233.5;" xml:space="preserve">
<style type="text/css">
	.st0{fill:url(#SVGID_1_);}
	.st1{opacity:0.1;fill:#FFFFFF;enable-background:new    ;}
	.st2{opacity:0.4;fill:url(#SVGID_2_);enable-background:new    ;}
	.st3{fill:#C7C6C5;}
	.st4{fill:url(#SVGID_3_);}
	.st5{fill:url(#SVGID_4_);}
	.st6{opacity:0.4;fill:#FFFFFF;enable-background:new    ;}
	.st7{fill:url(#SVGID_5_);}
	.st8{fill:#BCAA09;}
	.st9{fill:#FEEB17;}
	.st10{opacity:0.4;fill:url(#SVGID_6_);enable-background:new    ;}
</style>
<g>
	
		<radialGradient id="SVGID_1_" cx="155.2702" cy="308.7309" r="216.6534" gradientTransform="matrix(1 0 0 -1 0 371.6064)" gradientUnits="userSpaceOnUse">
		<stop  offset="0" style="stop-color:#010202"/>
		<stop  offset="1" style="stop-color:#868686"/>
	</radialGradient>
	<path class="st0" d="M205.5,48.4c-65.7-64.4-95.4,6.1-95.4,6.1L93.6,97c-0.3,0.8,0,1.8,0.7,2.3c10.1,7.6,21.4,18.9,22,34.9
		c0,0.1,0,0.2,0,0.2c0.9,4.6,0.9,9.7-0.6,15c-5.1,22.2-28.5,39-56.6,39c-16.8,0-27.7-5.6-36.5-15c-1.5-1.6-4,0-3.3,2.1v0.1
		c0,0.1,0.1,0.2,0.2,0.4c20.2,34.8,51.3,57.6,94.4,57.6c57,0,104.4-40.8,114.7-94.8c0-0.1,0-0.1,0-0.2
		C232.7,101.9,223.4,65.9,205.5,48.4z"/>
	<path class="st1" d="M205.5,48.4c-65.7-64.4-95.4,6.1-95.4,6.1l-13.6,35l20.9-31.9c0.7-1.5,13-28.3,36.7-28.3
		c13.6,0,29,8.4,45.8,24.8c16.2,15.9,24.5,49.4,20.7,83.4c-9.8,51.1-54.7,88.1-106.8,88.1c-28.5,0-52.3-10.4-71.2-31.1
		c5.1,1.3,10.5,1.9,16.4,1.9c31.2,0,58.2-18.9,64.3-45c1.6-5.9,1.9-12,0.8-18c-0.6-13.9-8.7-29.7-28.1-42.7l-2.4,6.2
		c-0.3,0.8,0,1.8,0.7,2.3c10.1,7.6,21.4,18.9,22,34.9c0,0.1,0,0.2,0,0.2c0.9,4.6,0.9,9.7-0.6,15c-5.1,22.2-28.5,39-56.6,39
		c-16.8,0-27.7-5.6-36.5-15c-1.5-1.6-4,0-3.3,2.1v0.1c0,0.1,0.1,0.2,0.2,0.4c20.2,34.8,51.3,57.6,94.4,57.6
		c57,0,104.4-40.8,114.7-94.8c0-0.1,0-0.1,0-0.2C232.7,101.9,223.4,65.9,205.5,48.4z"/>
	
		<radialGradient id="SVGID_2_" cx="90.8101" cy="164.7618" r="111.5055" gradientTransform="matrix(1 0 0 -1 0 371.6064)" gradientUnits="userSpaceOnUse">
		<stop  offset="0" style="stop-color:#FFFFFF"/>
		<stop  offset="1" style="stop-color:#FFFFFF;stop-opacity:0"/>
	</radialGradient>
	<path class="st2" d="M119.2,43c-5.2,6.9-7.7,12.8-7.7,12.8L95,98.3c-0.3,0.8,0,1.8,0.7,2.3c10.1,7.6,20.4,17.7,21,33.7
		c0,0.1,0.4,1.2,0.4,3.1c0.2,5.1-0.1,8.3-1.6,13.6c-5.1,22.2-28.3,37.4-56.4,37.4c-16.8,0-26.3-4.2-35.1-13.6c-1.5-1.6-4,0-3.3,2.1
		v0.1c0,0.1,0.1,0.2,0.2,0.4c1.2,2.1,2.5,4.1,3.7,6.1c15.9,17,38.4,27.6,63.5,27.6c48,0,86.9-38.9,86.9-86.9
		C175,87.1,151.9,55.5,119.2,43z"/>
	<path class="st3" d="M29.2,210.2c-3-6.8-5.5-13.5-7.5-19.9c-3.9,3-8.5,5.5-13.8,7.4c10-23.1,15.8-49.3,17.3-78.1
		c0.6,0,1.3,0.1,2.1,0.2C32.1,152.2,32.8,182.5,29.2,210.2z"/>
	
		<radialGradient id="SVGID_3_" cx="18.0976" cy="144.7227" r="37.6087" gradientTransform="matrix(1 0 0 -1 0 371.6064)" gradientUnits="userSpaceOnUse">
		<stop  offset="0" style="stop-color:#FFFFFF"/>
		<stop  offset="1" style="stop-color:#FFFFFF;stop-opacity:0"/>
	</radialGradient>
	<path class="st4" d="M29.2,210.2c-3-6.8-5.5-13.5-7.5-19.9c-3.9,3-8.5,5.5-13.8,7.4c10-23.1,15.8-49.3,17.3-78.1
		c0.6,0,1.3,0.1,2.1,0.2C32.1,152.2,32.8,182.5,29.2,210.2z"/>
	
		<radialGradient id="SVGID_4_" cx="28.5014" cy="211.3788" r="22.6488" gradientTransform="matrix(1 0 0 -1 0 371.6064)" gradientUnits="userSpaceOnUse">
		<stop  offset="0" style="stop-color:#010202"/>
		<stop  offset="1" style="stop-color:#010202;stop-opacity:0"/>
	</radialGradient>
	<path class="st5" d="M29.2,210.2c-3-6.8-5.5-13.5-7.5-19.9c-3.9,3-8.5,5.5-13.8,7.4c10-23.1,15.8-49.3,17.3-78.1
		c0.6,0,1.3,0.1,2.1,0.2C32.1,152.2,32.8,182.5,29.2,210.2z"/>
	<path class="st6" d="M27.2,119.8c-0.8-0.1-1.5-0.2-2.1-0.2c-1.5,28.8-7.3,55-17.3,78.1c5.3-1.9,9.9-4.3,13.8-7.4
		c2,6.4,4.5,13,7.5,19.9C32.8,182.5,32.1,152.2,27.2,119.8z M26.9,193.2c-0.5-1.4-0.9-2.8-1.4-4.1l-1.7-5.4l-4.5,3.5
		c-1.2,1-2.6,1.9-4,2.7c5-13.4,8.7-27.9,11.1-43.1C27.7,162.9,27.8,178.4,26.9,193.2z"/>
	
		<radialGradient id="SVGID_5_" cx="174.0506" cy="318.2006" r="219.8571" gradientTransform="matrix(1 0 0 -1 0 371.6064)" gradientUnits="userSpaceOnUse">
		<stop  offset="0" style="stop-color:#3D3D3B"/>
		<stop  offset="1" style="stop-color:#868686"/>
	</radialGradient>
	<path class="st7" d="M217.4,66.1c0,0-62.7-34.4-113.3,11.7c-2.4,4.3-9.5,23.1-11.7,26.8c-20,33.8-22.4,37-50.8,53.6
		c-4.9,2.8-17.4-1-23.3-2.3c-11.2-2.6-6.5-12-15.8-34.8c-7.4-18.1,3.4-47.9,13-69.4c4.4-9.7,17.6-11.6,24-17.9
		C71.2,3,104.2-4.9,143.7,2.8C192.7,12.5,217.4,66.1,217.4,66.1z"/>
	<path class="st1" d="M143.7,2.8C104.2-5,71.2,2.9,39.5,33.8c-6.5,6.3-19.7,8.1-24,17.9C5.9,73.1-4.9,103,2.5,121.1
		c9.3,22.8,4.6,32.2,15.8,34.8c6,1.4,18.5,5.2,23.3,2.3c28.4-16.6,30.8-19.8,50.8-53.6c2.2-3.7,9.3-22.5,11.7-26.8
		c50.6-46.1,113.3-11.7,113.3-11.7S192.7,12.5,143.7,2.8z M166,45.8c-25.6,0-48.2,8.8-67.3,26.1c-0.6,0.6-1.2,1.3-1.6,2
		c-1.3,2.3-3.2,6.8-6.1,14c-1.8,4.5-4.6,11.2-5.4,12.6c-19.8,33.4-21.6,35.4-47.7,50.6c-0.2,0-0.6,0.1-1.4,0.1
		c-3.7,0-9.3-1.4-13.4-2.4c-1.1-0.3-2.2-0.5-3-0.7c-1.9-0.4-1.9-0.4-3.6-7.9c-1.2-5.4-2.8-12.7-6.7-22.2C6.5,109.8,6,92.2,22.7,54.9
		c1.5-3.4,6-5.6,10.7-8c4.1-2,8.3-4.1,11.7-7.4C67.2,18,90,8,116.9,8c8,0,16.3,0.9,25.3,2.6c26.3,5.2,45.2,24.6,56.3,39.7
		C189.4,47.8,178.2,45.8,166,45.8z"/>
	<path class="st8" d="M57.8,127.1c-2.1,0-3.6-0.6-3.8-0.7c-0.6-0.2-1-0.8-1.2-1.4c-0.1-0.6,0-1.3,0.4-1.8l4-4.6
		c0.7-1.6,3.7-7.8,8.5-9.3c0.5-0.2,1-0.2,1.4-0.2c1.3,0,2.4,0.7,2.9,1.9c1.4,3.4-2.8,10.7-5.5,13.3
		C62.8,126.1,60.4,127.1,57.8,127.1L57.8,127.1z"/>
	<path class="st8" d="M8.5,118.6c-0.2,0-0.3,0-0.5-0.1c-0.2-0.1-5.1-1.3-5.9-6.6c-0.5-3.2,0.3-8.4,2.1-10.5c0.8-1,1.7-1.2,2.3-1.2
		c0.7,0,1.7,0.3,2.6,1.5c2.3,3.3,1.4,8.5,1.1,10l0.4,4.7c0.1,0.6-0.2,1.3-0.7,1.7C9.4,118.4,8.9,118.6,8.5,118.6z"/>
	<path class="st9" d="M54.8,124.6c0,0,4.7,2,8.5-1.7s7.7-13.1,3.2-11.7c-4.5,1.4-7.4,8.5-7.4,8.5L54.8,124.6z"/>
	<path class="st9" d="M8.5,116.6c0,0-3.8-0.9-4.5-4.9S5.2,100,7.4,103c2.1,3,0.7,8.7,0.7,8.7L8.5,116.6z"/>
	
		<radialGradient id="SVGID_6_" cx="119.8316" cy="361.1903" r="137.1721" gradientTransform="matrix(1 0 0 -1 0 371.6064)" gradientUnits="userSpaceOnUse">
		<stop  offset="0" style="stop-color:#FFFFFF"/>
		<stop  offset="1" style="stop-color:#FFFFFF;stop-opacity:0"/>
	</radialGradient>
	<path class="st10" d="M28.5,155c0-80.5,53-145.8,118.4-145.8c6.8,0,13.5,0.7,20,2.1c-7-3.8-14.7-6.8-23.2-8.5
		C104.2-5,71.2,2.9,39.5,33.8c-6.5,6.3-19.7,8.1-24,17.9C5.9,73.1-4.9,103,2.5,121.1c9.3,22.8,4.6,32.2,15.8,34.8
		c2.6,0.6,6.4,1.7,10.3,2.4C28.5,157.1,28.5,156.1,28.5,155z"/>
</g>
</svg>
